# xmcd
#
# Track frame offsets:
# 150
# 12475
# 21062
# 34970
# 43905
# 53650
# 62497
# 73750
# 84560
# 92645
# 100665
# 112280
# 122507
# 184085
# 190662
# 195352
#
# Disc length: 2720 seconds
#
#
# Revision: 1
# Processed by: cddbd v1.5.2PL0 Copyright (c) Steve Scherf et al.
# Submitted via: FreeRIP 2.70 
#
DISCID=d40a9e10
DTITLE=Gene Autry - Here Comes Santa Claus
DYEAR=1999
DGENRE=Christmas
TTITLE0=Here Comes Santa Claus (Right Down Santa Claus Lane)
TTITLE1=Frosty the Snowman
TTITLE2=Rudolph The Red-Nosed Reindeer
TTITLE3=Jingle Bells
TTITLE4=Silver Bells
TTITLE5=Nine Little Reindeer
TTITLE6=Sleigh Bells
TTITLE7=Buon Natale
TTITLE8=Santa's Comin' In A Whirlybird
TTITLE9=Thirty Two Feet, Eight Little Tails
TTITLE10=Up on The House Top
TTITLE11=Santa Claus is Comin' To Town
TTITLE12=The Story Of the Nativity
TTITLE13=Silent Night
TTITLE14=Joy to The World
TTITLE15=One solitary Life
EXTD=
EXTT0=
EXTT1=
EXTT2=
EXTT3=
EXTT4=
EXTT5=
EXTT6=
EXTT7=
EXTT8=
EXTT9=
EXTT10=
EXTT11=
EXTT12=
EXTT13=
EXTT14=
EXTT15=
PLAYORDER=
